<svg width="37" height="36" xmlns="http://www.w3.org/2000/svg">

 <mask height="27" width="26" y="2" x="2" maskUnits="userSpaceOnUse" id="mask0">
  <path id="svg_1" fill="white" d="m2.11133,15.1025l0,-12.90432l25.45647,0l0,12.90432l0,12.9044l-25.45647,0l0,-12.9044z" clip-rule="evenodd" fill-rule="evenodd"/>
 </mask>
 <g>
  <title>background</title>
  <rect fill="none" id="canvas_background" height="38" width="39" y="-1" x="-1"/>
 </g>
 <g>
  <title>Layer 1</title>
  <path id="svg_2" fill="white" d="m23.645,10.6461l-15.79968,5.8835c-0.02655,0.0095 -0.05261,0.0204 -0.07784,0.0329c-0.05572,0.0278 -0.10685,0.0626 -0.15273,0.1031c-0.09308,0.0825 -0.16551,0.1904 -0.20599,0.3165c-0.01311,0.0413 -0.02278,0.0841 -0.02835,0.1279c-0.01688,0.1291 0.00196,0.2563 0.04932,0.37c0.02,0.0481 0.04507,0.0935 0.07457,0.1358c0.00098,0 0.00016,0.0003 0.00032,0.0003c0.09554,0.1365 0.2386,0.2396 0.41165,0.2807l0.00033,0c0.00049,0.0001 0.00082,0.0001 0.00115,0.0001c0.00049,0.0002 0.00065,0.0004 0.00098,0.0004c0.00082,0.0001 0.00099,0.0001 0.00148,0.0003l7.72429,1.789l8.7381,-8.8754c-0.193,-0.1962 -0.4811,-0.2606 -0.7376,-0.1651z" clip-rule="evenodd" fill-rule="evenodd"/>
  <path id="svg_3" fill="white" d="m24.3061,10.9354l-8.7381,8.8754l1.7615,7.8457c0,0.0005 0.0001,0.0007 0.0003,0.0013c0,0.0005 0,0.0007 0.0002,0.0012c0,0.0003 0.0001,0.0005 0.0003,0.0012c0,0.0001 0,0.0001 0,0.0001c0.0405,0.176 0.1417,0.3213 0.2761,0.4183c0.0002,0.0002 0.0003,-0.0007 0.0005,0.0003c0.0415,0.03 0.0864,0.0555 0.1337,0.0758c0.112,0.0482 0.237,0.0672 0.3642,0.0501c0.0431,-0.0057 0.0853,-0.0155 0.126,-0.029c0.124,-0.0409 0.2304,-0.1145 0.3117,-0.2092c0.0396,-0.0465 0.0739,-0.0984 0.1012,-0.155c0.0123,-0.0256 0.0233,-0.0521 0.0325,-0.079l5.7924,-16.048c0.0941,-0.2605 0.0308,-0.5531 -0.1625,-0.7492z" clip-rule="evenodd" fill-rule="evenodd"/>
  <path id="svg_4" fill="white" d="m27.4807,3.49153c-3.3193,-2.36889 -7.3858,-3.48759 -11.4502,-3.1497c-4.1126,0.34172 -7.98668,2.16449 -10.90855,5.13226c-5.9858,6.07991 -6.82385,15.60601 -1.99237,22.65081c0.28236,0.4116 0.73415,0.6323 1.19349,0.6323c0.28662,0 0.57618,-0.0859 0.8292,-0.265c0.16174,-0.1145 0.29317,-0.2565 0.39313,-0.4151c0.30727,-0.4877 0.3148,-1.135 -0.0313,-1.6395c-4.02571,-5.8701 -3.32646,-13.8087 1.66283,-18.87641c2.43532,-2.47359 5.66377,-3.9926 9.09067,-4.27739c3.3893,-0.28196 6.7777,0.64965 9.5424,2.62289c0.4924,0.35138 1.1256,0.34888 1.6061,0.04395c0.1598,-0.10154 0.3029,-0.23653 0.4181,-0.40298c0.4613,-0.66695 0.303,-1.58758 -0.3535,-2.05613z" clip-rule="evenodd" fill-rule="evenodd"/>
  <path id="svg_5" fill="white" d="m31.7673,7.73266c-0.4625,-0.66613 -1.3689,-0.82559 -2.025,-0.35554c-0.1639,0.11752 -0.2968,0.26316 -0.3964,0.42595c-0.2991,0.48836 -0.3004,1.13118 0.0463,1.63069c1.9501,2.80864 2.8724,6.25384 2.5976,9.70074c-0.2781,3.4853 -1.7741,6.7688 -4.2122,9.2454c-2.8134,2.8574 -6.544,4.3292 -10.2995,4.329c-2.8343,-0.0002 -5.6829,-0.8387 -8.16036,-2.5527c-0.49998,-0.3458 -1.13663,-0.3317 -1.61334,-0.0153c-0.15568,0.1034 -0.29431,0.2386 -0.40558,0.4042c-0.4518,0.6738 -0.28023,1.5919 0.38297,2.0508c2.97451,2.0576 6.39221,3.0643 9.79491,3.064c4.5047,-0.0004 8.9815,-1.7656 12.3557,-5.1927c2.9253,-2.9715 4.7202,-6.9115 5.0539,-11.0943c0.3298,-4.1343 -0.778,-8.2682 -3.119,-11.64024z" clip-rule="evenodd" fill-rule="evenodd"/>
  <g id="svg_6" mask="url(#mask0)">
   <path id="svg_7" fill="white" d="m5.66591,26.3675c-4.02588,-5.8699 -3.32647,-13.8087 1.66282,-18.87638c2.43532,-2.47359 5.66367,-3.99277 9.09067,-4.27756c3.3893,-0.28196 6.7777,0.64981 9.5424,2.62289c0.4924,0.35171 1.1255,0.34888 1.606,0.04411c-2.6935,-2.29782 -6.1673,-3.6825 -9.9599,-3.6825c-8.5585,0 -15.49657,7.04709 -15.49657,15.74004c0,3.83 1.3472,7.3397 3.58604,10.0688c0.3071,-0.4876 0.31464,-1.1347 -0.03146,-1.6394z" clip-rule="evenodd" fill-rule="evenodd"/>
  </g>
 </g>
</svg>